<svg xmlns="http://www.w3.org/2000/svg" width="907" height="1000" viewBox="0 0 907 1000">
  <defs>
    <style>
      .cls-1, .cls-2 {
        fill: #fff;
      }

      .cls-1 {
        fill-opacity: 0;
        stroke: #fff;
        stroke-width: 10.14px;
      }

      .cls-2 {
        fill-rule: evenodd;
      }
    </style>
  </defs>
  <ellipse class="cls-1" cx="453.5" cy="463.5" rx="297.5" ry="296.5"/>
  <path id="T" class="cls-2" d="M520.472,609.092h49.355V433.856H685.363V412.243H405.5v21.613H520.472V609.092Z"/>
  <path id="B" class="cls-2" d="M280.848,551.052a522.624,522.624,0,0,0,57.7,2.837c47.014,0,79.5-7.091,99.583-22.336,14.531-11.7,24.361-27.3,24.361-47.863,0-35.454-32.054-54.245-59.407-59.917v-0.709c30.345-9.218,48.723-29.427,48.723-52.472,0-18.791-8.976-32.972-23.934-42.19-17.951-12.055-41.885-17.373-79.068-17.373-26.071,0-51.715,2.128-67.956,4.964V551.052Zm37.184-214.141c5.983-1.064,15.813-2.128,32.909-2.128,37.61,0,63.254,10.991,63.254,39,0,23.045-23.079,40.063-62.4,40.063H318.032V336.911Zm0,100.334H348.8c40.6,0,74.366,13.473,74.366,46.09,0,34.745-35.473,46.445-73.939,46.445-13.249,0-23.934-.354-31.2-1.418V437.245Z"/>
</svg>
